{"title":"Geordie Shore S12E05 1080P WEB-DL AAC2 0 H 264","uid":14311772,"size":1607160529,"categoryP":"video","categoryS":"hd___tv_shows","magnet":"?xt=urn:btih:ac97c83c5be88e2a53f006b70a23a44f26ca51e0&amp;dn=Geordie+Shore+S12E05+1080P+WEB-DL+AAC2+0+H+264&amp;tr=udp%3A%2F%2Ftracker.leechers-paradise.org%3A6969&amp;tr=udp%3A%2F%2Fzer0day.ch%3A1337&amp;tr=udp%3A%2F%2Fopen.demonii.com%3A1337&amp;tr=udp%3A%2F%2Ftracker.coppersurfer.tk%3A6969&amp;tr=udp%3A%2F%2Fexodus.desync.com%3A6969","seeders":8,"leechers":0,"uploader":"jmanwf","files":1,"time":1460549636,"description":"Description\r\nBoss Anna treats the Geordies with a trip to Hull.Gaz and Charlotte spend the night together, Chloe finally comes clean to Chantelle over what she gave Scott and it all Kicks off.\r\n\r\n\r\nVideo\r\nID : 2\r\nFormat : AVC\r\nFormat/Info : Advanced Video Codec\r\nFormat profile :   \r\nFormat settings, CABAC : Yes\r\nFormat settings, ReFrames : 4 frames\r\nCodec ID : avc1\r\nCodec ID/Info : Advanced Video Coding\r\nDuration : 42mn 25s\r\nBit rate : 4 922 Kbps\r\nWidth : 1 920 pixels\r\nHeight : 1 080 pixels\r\nDisplay aspect ratio : 16:9\r\nFrame rate mode : Constant\r\nFrame rate : 25.000 fps\r\nColor space : YUV\r\nChroma subsampling : 4:2:0\r\nBit depth : 8 bits\r\nScan type : Progressive\r\nBits/(Pixel*Frame) : 0.095\r\nStream size : 1.46 GiB (97%)\r\nLanguage : English\r\nEncoded date : UTC 2016-04-13 04:51:12\r\nTagged date : UTC 2016-04-13 04:54:21\r\nColor range : Limited\r\nColor primaries : BT.709\r\nTransfer characteristics : BT.709\r\nMatrix coefficients : BT.709\r\n\r\nAudio\r\nID : 1\r\nFormat : AAC\r\nFormat/Info : Advanced Audio Codec\r\nFormat profile : LC\r\nCodec ID : 40\r\nDuration : 42mn 24s\r\nBit rate mode : Variable\r\nBit rate : 126 Kbps\r\nMaximum bit rate : 202 Kbps\r\nChannel(s) : 2 channels\r\nChannel positions : Front: L R\r\nSampling rate : 48.0 KHz\r\nFrame rate : 46.875 fps (1024 spf)\r\nCompression mode : Lossy\r\nStream size : 38.1 MiB (2%)\r\nLanguage : English\r\nDefault : Yes\r\nAlternate group : 1\r\nEncoded date : UTC 2016-04-13 04:51:11\r\nTagged date : UTC 2016-04-13 04:54:21","torrent":{"xt":"urn:btih:ac97c83c5be88e2a53f006b70a23a44f26ca51e0","amp;dn":"Geordie+Shore+S12E05+1080P+WEB-DL+AAC2+0+H+264","amp;tr":["udp%3A%2F%2Ftracker.leechers-paradise.org%3A6969","udp%3A%2F%2Fzer0day.ch%3A1337","udp%3A%2F%2Fopen.demonii.com%3A1337","udp%3A%2F%2Ftracker.coppersurfer.tk%3A6969","udp%3A%2F%2Fexodus.desync.com%3A6969"],"infoHash":"ac97c83c5be88e2a53f006b70a23a44f26ca51e0","infoHashBuffer":{"type":"Buffer","data":[172,151,200,60,91,232,142,42,83,240,6,183,10,35,164,79,38,202,81,224]},"announce":[],"urlList":[]}}